<?xml version="1.0" standalone="no"?><!DOCTYPE svg PUBLIC "-//W3C//DTD SVG 1.1//EN" "http://www.w3.org/Graphics/SVG/1.1/DTD/svg11.dtd"><svg t="1614135653470" class="icon" viewBox="0 0 1024 1024" version="1.1" xmlns="http://www.w3.org/2000/svg" p-id="1890" xmlns:xlink="http://www.w3.org/1999/xlink" width="64" height="64"><defs><style type="text/css"></style></defs><path d="M768 1024H256a128 128 0 0 1-128-128V128a128 128 0 0 1 128-128h512a128 128 0 0 1 128 128v768a128 128 0 0 1-128 128z m-256-64a64 64 0 1 0-64-64 64 64 0 0 0 64 64z m256-768a64 64 0 0 0-64-64H320a64 64 0 0 0-64 64v512a64 64 0 0 0 64 64h384a64 64 0 0 0 64-64V192z" p-id="1891"></path></svg>